<?xml version="1.0" encoding="UTF-8" standalone="no"?>
<svg
   width="520"
   height="320"
   version="1.1"
   id="svg8"
   sodipodi:docname="Goldner-Harary_graph colouring.svg"
   inkscape:version="1.3.2 (091e20e, 2023-11-25, custom)"
   xmlns:inkscape="http://www.inkscape.org/namespaces/inkscape"
   xmlns:sodipodi="http://sodipodi.sourceforge.net/DTD/sodipodi-0.dtd"
   xmlns="http://www.w3.org/2000/svg"
   xmlns:svg="http://www.w3.org/2000/svg">
  <defs
     id="defs8" />
  <sodipodi:namedview
     id="namedview8"
     pagecolor="#ffffff"
     bordercolor="#000000"
     borderopacity="0.25"
     inkscape:showpageshadow="2"
     inkscape:pageopacity="0.0"
     inkscape:pagecheckerboard="0"
     inkscape:deskcolor="#d1d1d1"
     inkscape:zoom="3.815625"
     inkscape:cx="260.11466"
     inkscape:cy="97.100737"
     inkscape:window-width="2560"
     inkscape:window-height="1417"
     inkscape:window-x="-8"
     inkscape:window-y="-8"
     inkscape:window-maximized="1"
     inkscape:current-layer="svg8" />
  <marker
     id="a"
     overflow="visible"
     orient="auto">
    <circle
       r="5"
       fill="#00f"
       stroke="#000"
       id="circle1" />
  </marker>
  <path
     d="m228.4 18.579a282.84 141.42 0 0 1 282.84 141.42 282.84 141.42 0 0 1-282.84 141.42"
     fill="none"
     stroke="#000"
     stroke-width="1.5"
     id="path1" />
  <g
     fill="none"
     stroke="#000"
     stroke-width="1.5"
     marker-end="url(#a)"
     marker-mid="url(#a)"
     marker-start="url(#a)"
     id="g8">
    <path
       d="m181.26 207.14 94.281-94.281"
       id="path2" />
    <path
       d="m275.54 207.14-94.281-94.281"
       id="path3" />
    <path
       d="M 440.53,160 228.4,18.58 16.27,160 228.4,301.42 Z"
       id="path4" />
    <path
       d="m228.4 301.42v-282.84"
       id="path5" />
    <path
       d="m16.265 160h212.13 212.13"
       id="path6" />
    <path
       d="m228.4 18.583 141.42 141.42-141.42 141.42-141.42-141.42z"
       id="path7" />
    <path
       d="m369.82 160-94.281 47.14-47.14 94.281-47.14-94.281-94.281-47.14 94.281-47.14 47.14-94.281 47.14 94.281z"
       id="path8" />
  </g>
  <path
     style="fill:#ff0000;stroke:#000000;stroke-width:0.996483"
     d="M 13.497133,165.92739 C 11.104833,164.79643 9.7084813,162.61182 9.7084813,160 c 0,-3.63409 2.9099517,-6.54689 6.5404947,-6.54689 3.628648,0 6.535624,2.9084 6.543691,6.54689 0.01059,4.77893 -4.985699,7.96487 -9.295534,5.92739 z"
     id="path17" />
  <path
     style="fill:#00ff00;stroke:#000000;stroke-width:0.996483"
     d="m 84.24423,165.92991 c -2.421803,-1.12773 -3.78559,-3.33425 -3.78559,-6.12487 0,-4.66201 5.155196,-7.78542 9.377281,-5.68147 2.514721,1.25314 3.877425,3.58273 3.662434,6.26106 -0.07084,0.88256 -0.316947,1.96848 -0.546898,2.41316 -1.714801,3.31606 -5.436906,4.65495 -8.707227,3.13212 z"
     id="path18" />
  <path
     style="fill:#ffff00;stroke:#000000;stroke-width:0.996483"
     d="m 226.6524,24.935109 c -2.39938,-0.665556 -4.18149,-2.619164 -4.71354,-5.167134 -0.57127,-2.735766 0.93147,-5.744262 3.56333,-7.133798 0.7968,-0.420683 1.52974,-0.562918 2.90076,-0.562918 2.17486,0 3.46666,0.572072 4.91709,2.17752 0.91001,1.007271 1.76596,3.120009 1.76596,4.35892 0,1.180631 -0.81234,3.212134 -1.69832,4.247212 -1.63651,1.911885 -4.33618,2.745681 -6.73528,2.080198 z"
     id="path19" />
  <path
     style="fill:#ffff00;stroke:#000000;stroke-width:0.996483"
     d="m 178.6077,213.12424 c -2.62608,-1.2544 -4.34473,-4.2368 -3.92505,-6.81121 0.73826,-4.52871 5.47163,-7.02351 9.50873,-5.01174 4.05843,2.0224 4.88531,7.2885 1.65211,10.5217 -1.85155,1.85155 -4.9262,2.40448 -7.23579,1.30125 z"
     id="path20" />
  <path
     style="fill:#ffff00;stroke:#000000;stroke-width:0.996483"
     d="m 273.28511,213.3289 c -3.23544,-1.18828 -5.09342,-4.952 -4.02803,-8.15961 1.54615,-4.65501 7.46256,-6.11613 10.88943,-2.68925 2.48116,2.48115 2.61833,6.40592 0.31326,8.96307 -1.82101,2.02016 -4.72823,2.78429 -7.17466,1.88579 z"
     id="path21" />
  <path
     style="fill:#ff0000;stroke:#000000;stroke-width:0.996483"
     d="m 437.7905,165.92991 c -5.05219,-2.35258 -5.05219,-9.50724 0,-11.85982 4.33294,-2.01764 9.30692,1.15153 9.30692,5.92991 0,4.77838 -4.97398,7.94755 -9.30692,5.92991 z"
     id="path22" />
  <path
     style="fill:#00ff00;stroke:#000000;stroke-width:0.996483"
     d="m 367.0327,165.9317 c -2.29893,-1.07052 -3.77795,-3.3927 -3.77795,-5.9317 0,-4.79594 4.95806,-7.95497 9.30692,-5.92991 6.31135,2.93891 4.20016,12.45816 -2.76642,12.4736 -0.96806,0.002 -1.87531,-0.19884 -2.76255,-0.61199 z"
     id="path23" />
  <path
     style="fill:#ff0000;stroke:#000000;stroke-width:0.996483"
     d="m 225.9767,166.17674 c -1.49037,-0.67619 -2.57697,-1.67775 -3.35906,-3.09616 -1.90177,-3.44909 -0.30391,-7.69766 3.49146,-9.28346 1.20674,-0.50421 4.00988,-0.36509 5.21653,0.25889 4.01927,2.07845 4.84828,7.43656 1.64603,10.6388 -0.45329,0.4533 -1.19495,1.01666 -1.64812,1.25191 -1.13961,0.59159 -4.25455,0.7256 -5.34684,0.23002 z"
     id="path29" />
</svg>
